<svg width="126" height="160" viewBox="0 0 126 160" version="1.1" xmlns="http://www.w3.org/2000/svg" xmlns:xlink="http://www.w3.org/1999/xlink">
<title>Group 3</title>
<desc>Created using Figma</desc>
<g id="Canvas" transform="translate(68 -483)">
<g id="Group 3">
<g id="Rectangle">
<use xlink:href="#path0_fill" transform="translate(-68 483)" fill="#FFFFFF"/>
<mask id="mask0_outline_ins">
<use xlink:href="#path0_fill" fill="white" transform="translate(-68 483)"/>
</mask>
<g mask="url(#mask0_outline_ins)">
<use xlink:href="#path1_stroke_2x" transform="translate(-68 483)" fill="#E52020"/>
</g>
</g>
<g id="Ellipse">
<mask id="mask1_outline_ins">
<use xlink:href="#path2_fill" fill="white" transform="translate(-37.6875 593.788)"/>
</mask>
<g mask="url(#mask1_outline_ins)">
<use xlink:href="#path3_stroke_2x" transform="translate(-37.6875 593.788)" fill="#E52020"/>
</g>
</g>
<g id="Rectangle">
<use xlink:href="#path0_fill" transform="translate(-15 514)" fill="#FFFFFF"/>
<mask id="mask2_outline_ins">
<use xlink:href="#path0_fill" fill="white" transform="translate(-15 514)"/>
</mask>
<g mask="url(#mask2_outline_ins)">
<use xlink:href="#path1_stroke_2x" transform="translate(-15 514)" fill="#E52020"/>
</g>
</g>
<g id="Ellipse">
<mask id="mask3_outline_ins">
<use xlink:href="#path4_fill" fill="white" transform="translate(16.8281 626.306)"/>
</mask>
<g mask="url(#mask3_outline_ins)">
<use xlink:href="#path5_stroke_2x" transform="translate(16.8281 626.306)" fill="#E52020"/>
</g>
</g>
<g id="Polygon">
<mask id="mask4_outline_ins">
<use xlink:href="#path6_fill" fill="white" transform="matrix(6.11508e-17 -1 1 6.1314e-17 -7.42188 635.412)"/>
</mask>
<g mask="url(#mask4_outline_ins)">
<use xlink:href="#path7_stroke_2x" transform="matrix(6.11508e-17 -1 1 6.1314e-17 -7.42188 635.412)" fill="#E52020"/>
</g>
</g>
<g id="Rectangle 2">
<mask id="mask5_outline_ins">
<use xlink:href="#path8_fill" fill="white" transform="translate(39.5625 626.306)"/>
</mask>
<g mask="url(#mask5_outline_ins)">
<use xlink:href="#path9_stroke_2x" transform="translate(39.5625 626.306)" fill="#E52020"/>
</g>
</g>
</g>
</g>
<defs>
<path id="path0_fill" d="M 0 4C 0 1.79086 1.79086 0 4 0L 68.75 0C 70.9591 0 72.75 1.79086 72.75 4L 72.75 125C 72.75 127.209 70.9591 129 68.75 129L 4 129C 1.79086 129 0 127.209 0 125L 0 4Z"/>
<path id="path1_stroke_2x" d="M 4 3L 68.75 3L 68.75 -3L 4 -3L 4 3ZM 69.75 4L 69.75 125L 75.75 125L 75.75 4L 69.75 4ZM 68.75 126L 4 126L 4 132L 68.75 132L 68.75 126ZM 3 125L 3 4L -3 4L -3 125L 3 125ZM 4 -3C 0.134007 -3 -3 0.134007 -3 4L 3 4C 3 3.44772 3.44772 3 4 3L 4 -3ZM 68.75 3C 69.3023 3 69.75 3.44772 69.75 4L 75.75 4C 75.75 0.134007 72.616 -3 68.75 -3L 68.75 3ZM 69.75 125C 69.75 125.552 69.3023 126 68.75 126L 68.75 132C 72.616 132 75.75 128.866 75.75 125L 69.75 125ZM 4 126C 3.44772 126 3 125.552 3 125L -3 125C -3 128.866 0.134007 132 4 132L 4 126Z"/>
<path id="path2_fill" d="M 10.6094 5.31176C 10.6094 8.24537 8.23439 10.6235 5.30469 10.6235C 2.37499 10.6235 0 8.24537 0 5.31176C 0 2.37816 2.37499 0 5.30469 0C 8.23439 0 10.6094 2.37816 10.6094 5.31176Z"/>
<path id="path3_stroke_2x" d="M 8.60938 5.31176C 8.60938 7.14332 7.1273 8.62353 5.30469 8.62353L 5.30469 12.6235C 9.34147 12.6235 12.6094 9.34743 12.6094 5.31176L 8.60938 5.31176ZM 5.30469 8.62353C 3.48207 8.62353 2 7.14332 2 5.31176L -2 5.31176C -2 9.34743 1.26791 12.6235 5.30469 12.6235L 5.30469 8.62353ZM 2 5.31176C 2 3.48021 3.48207 2 5.30469 2L 5.30469 -2C 1.26791 -2 -2 1.2761 -2 5.31176L 2 5.31176ZM 5.30469 2C 7.1273 2 8.60938 3.48021 8.60938 5.31176L 12.6094 5.31176C 12.6094 1.2761 9.34147 -2 5.30469 -2L 5.30469 2Z"/>
<path id="path4_fill" d="M 7.57812 3.79412C 7.57812 5.88955 5.8817 7.58824 3.78906 7.58824C 1.69642 7.58824 0 5.88955 0 3.79412C 0 1.69868 1.69642 0 3.78906 0C 5.8817 0 7.57812 1.69868 7.57812 3.79412Z"/>
<path id="path5_stroke_2x" d="M 5.57812 3.79412C 5.57812 4.7875 4.77462 5.58824 3.78906 5.58824L 3.78906 9.58824C 6.98879 9.58824 9.57812 6.99161 9.57812 3.79412L 5.57812 3.79412ZM 3.78906 5.58824C 2.8035 5.58824 2 4.7875 2 3.79412L -2 3.79412C -2 6.99161 0.589338 9.58824 3.78906 9.58824L 3.78906 5.58824ZM 2 3.79412C 2 2.80074 2.8035 2 3.78906 2L 3.78906 -2C 0.589338 -2 -2 0.59663 -2 3.79412L 2 3.79412ZM 3.78906 2C 4.77462 2 5.57812 2.80074 5.57812 3.79412L 9.57812 3.79412C 9.57812 0.59663 6.98879 -2 3.78906 -2L 3.78906 2Z"/>
<path id="path6_fill" d="M 4.44603 1.4975C 4.83106 0.831502 5.79247 0.831502 6.1775 1.4975L 9.04442 6.45653C 9.42983 7.1232 8.94874 7.95703 8.17868 7.95703L 2.44485 7.95703C 1.67479 7.95703 1.1937 7.1232 1.57911 6.45653L 4.44603 1.4975Z"/>
<path id="path7_stroke_2x" d="M 9.04442 6.45653L 10.7759 5.45553L 9.04442 6.45653ZM 4.44603 1.4975L 2.71456 0.496502L 4.44603 1.4975ZM 1.57911 6.45653L -0.152362 5.45553L 1.57911 6.45653ZM 4.44603 2.4985L 7.31294 7.45753L 10.7759 5.45553L 7.90897 0.496502L 4.44603 2.4985ZM 8.17868 5.95703L 2.44485 5.95703L 2.44485 9.95703L 8.17868 9.95703L 8.17868 5.95703ZM 3.31058 7.45753L 6.1775 2.4985L 2.71456 0.496502L -0.152362 5.45553L 3.31058 7.45753ZM 7.90897 0.496502C 6.75389 -1.5015 3.86964 -1.5015 2.71456 0.496502L 6.1775 2.4985C 5.79247 3.1645 4.83106 3.1645 4.44603 2.4985L 7.90897 0.496502ZM 7.31294 7.45753C 6.92753 6.79086 7.40862 5.95703 8.17868 5.95703L 8.17868 9.95703C 10.4889 9.95703 11.9321 7.45553 10.7759 5.45553L 7.31294 7.45753ZM 2.44485 5.95703C 3.2149 5.95703 3.696 6.79086 3.31058 7.45753L -0.152362 5.45553C -1.3086 7.45553 0.134677 9.95703 2.44485 9.95703L 2.44485 5.95703Z"/>
<path id="path8_fill" d="M 0 1C 0 0.447715 0.447715 0 1 0L 6.57812 0C 7.13041 0 7.57812 0.447715 7.57812 1L 7.57812 6.58824C 7.57812 7.14052 7.13041 7.58824 6.57812 7.58824L 1 7.58824C 0.447715 7.58824 0 7.14052 0 6.58824L 0 1Z"/>
<path id="path9_stroke_2x" d="M 1 2L 6.57812 2L 6.57812 -2L 1 -2L 1 2ZM 5.57812 1L 5.57812 6.58824L 9.57812 6.58824L 9.57812 1L 5.57812 1ZM 6.57812 5.58824L 1 5.58824L 1 9.58824L 6.57812 9.58824L 6.57812 5.58824ZM 2 6.58824L 2 1L -2 1L -2 6.58824L 2 6.58824ZM 1 -2C -0.656854 -2 -2 -0.656854 -2 1L 2 1C 2 1.55228 1.55228 2 1 2L 1 -2ZM 6.57812 2C 6.02584 2 5.57812 1.55228 5.57812 1L 9.57812 1C 9.57812 -0.656854 8.23498 -2 6.57812 -2L 6.57812 2ZM 5.57812 6.58824C 5.57812 6.03595 6.02584 5.58824 6.57812 5.58824L 6.57812 9.58824C 8.23498 9.58824 9.57812 8.24509 9.57812 6.58824L 5.57812 6.58824ZM 1 5.58824C 1.55228 5.58824 2 6.03595 2 6.58824L -2 6.58824C -2 8.24509 -0.656854 9.58824 1 9.58824L 1 5.58824Z"/>
</defs>
</svg>
