<svg width="326" height="122" viewBox="0 0 326 122" version="1.1" xmlns="http://www.w3.org/2000/svg" xmlns:xlink="http://www.w3.org/1999/xlink">
<title>Fernando Soares</title>
<desc>Created using Figma</desc>
<g id="Canvas" transform="translate(443 223)">
<g id="Fernando Soares">
<use xlink:href="#path0_fill" transform="translate(-444 -223)"/>
</g>
</g>
<defs>
<path id="path0_fill" d="M 1.728 1.272C 8.512 1.272 8.896 3.192 8.896 8.696L 8.896 43.192C 8.896 48.696 8.512 50.616 1.728 50.616L 1.28 50.616L 1.28 51L 31.232 51L 31.232 50.616L 30.848 50.616C 24.064 50.616 23.616 48.696 23.616 43.192L 23.616 24.568C 29.696 24.568 32.896 26.616 34.944 32.056C 35.136 32.568 35.648 34.936 35.648 36.984L 36.032 36.984L 36.032 11.768L 35.648 11.768C 35.648 13.88 35.136 16.184 34.944 16.76C 32.896 22.136 29.696 24.12 23.616 24.12L 23.616 1.272C 29.44 1.272 32.512 1.784 36.096 4.28C 42.176 8.632 44.288 14.712 44.288 20.088L 44.672 20.088L 44.672 0.888L 1.28 0.888L 1.28 1.272L 1.728 1.272ZM 80.49 33.848C 80.49 31.096 80.426 28.92 79.594 26.616C 77.738 21.816 74.09 16.952 65.77 16.952C 61.994 16.952 57.77 18.168 54.57 21.24C 50.09 25.592 48.362 30.456 48.362 35.064C 48.362 41.4 51.946 51.384 66.282 51.384C 69.034 51.384 71.722 50.936 73.514 49.848C 78.826 46.648 80.17 40.312 80.554 36.984L 80.106 36.984C 79.402 43.448 75.498 50.744 68.65 50.744C 62.762 50.744 61.29 45.88 61.29 37.752L 61.29 33.848L 80.49 33.848ZM 65.642 17.336C 66.282 17.336 66.794 17.4 67.05 17.656C 68.906 19.256 68.97 21.816 68.97 25.208C 68.97 27.576 68.906 30.904 68.778 33.4L 61.29 33.4L 61.29 31.544C 61.29 21.752 61.994 17.336 65.642 17.336ZM 107.992 17.4C 109.015 17.4 111.831 17.72 112.087 20.536C 111 19.64 109.656 19.192 108.247 19.192C 104.663 19.192 102.232 21.624 102.232 25.08C 102.232 28.92 105.048 31.096 108.184 31.096C 111.576 31.096 114.327 28.472 114.327 24.376C 114.327 20.536 112.215 16.952 107.736 16.952C 103 16.952 101.015 20.408 100.119 23.992L 100.119 17.336L 82.3275 17.336L 82.3275 17.784C 87.3195 17.784 87.7675 19.128 87.7675 23.864L 87.7675 44.344C 87.7675 49.08 87.3195 50.616 82.3275 50.616L 82.3275 51L 106.072 51L 106.072 50.616C 101.08 50.616 100.695 49.08 100.695 44.344L 100.695 28.28C 100.695 24.184 100.951 21.56 102.808 19.448C 103.896 18.168 105.816 17.4 107.992 17.4ZM 116.765 17.784C 121.757 17.784 122.205 19.32 122.205 24.056L 122.205 44.344C 122.205 49.08 121.757 50.616 116.765 50.616L 116.765 51L 137.885 51L 137.885 50.616C 135.261 50.616 135.069 48.44 135.069 44.344L 135.069 29.432C 135.069 24.248 135.453 23.224 136.157 21.816C 137.181 19.768 139.101 19.576 139.485 19.576C 141.341 19.576 142.557 20.792 142.557 27.256L 142.557 44.344C 142.557 48.44 142.365 50.616 139.741 50.616L 139.741 51L 160.797 51L 160.797 50.616C 155.805 50.616 155.357 49.08 155.357 44.344L 155.357 28.664C 155.357 24.568 154.845 21.496 151.709 19C 149.981 17.656 147.741 16.952 145.053 16.952C 140.445 16.952 136.669 18.936 135.069 23.032L 135.069 17.336L 116.765 17.336L 116.765 17.784ZM 195.613 30.2C 195.613 26.552 195.422 22.712 191.198 19.768C 188.382 17.784 184.222 16.952 180.317 16.952C 172.318 16.952 165.661 20.472 165.661 25.784C 165.661 29.688 168.734 32.184 171.87 32.184C 175.005 32.184 178.333 29.752 178.333 25.912C 178.333 22.328 175.262 20.6 172.958 20.6C 172.446 20.6 171.934 20.664 171.55 20.856C 172.83 17.72 176.797 17.528 178.142 17.528C 180.573 17.528 182.75 18.04 182.75 24.248C 182.75 28.024 182.365 32.44 173.854 33.848L 172.318 34.104C 167.902 34.872 165.022 35.32 163.614 39.864C 163.357 40.76 163.166 41.784 163.166 42.808C 163.166 49.784 168.734 51.32 174.174 51.32C 175.582 51.32 176.733 51.256 177.694 50.872C 179.486 50.168 181.406 48.44 182.75 44.216C 183.774 47.992 184.861 49.464 188.445 50.872C 189.406 51.256 190.558 51.448 191.837 51.448C 193.63 51.448 195.549 51.064 197.021 50.232C 199.965 48.696 200.349 42.616 200.349 41.08L 199.902 41.08C 199.709 47.864 197.534 49.72 196.638 49.72C 195.613 49.72 195.613 47.928 195.613 46.904L 195.613 30.2ZM 180.765 31.416C 181.406 30.968 182.43 29.88 182.685 28.344L 182.685 36.6C 182.685 41.464 182.558 47.16 178.91 49.528C 178.59 49.848 178.077 49.976 177.629 49.976C 176.03 49.976 175.901 47.544 175.837 46.264C 175.71 44.728 175.582 43.384 175.582 41.912C 175.582 40.888 175.646 39.8 175.837 38.52C 176.285 34.936 176.606 34.488 180.765 31.416ZM 201.827 17.784C 206.819 17.784 207.267 19.32 207.267 24.056L 207.267 44.344C 207.267 49.08 206.819 50.616 201.827 50.616L 201.827 51L 222.948 51L 222.948 50.616C 220.323 50.616 220.132 48.44 220.132 44.344L 220.132 29.432C 220.132 24.248 220.515 23.224 221.219 21.816C 222.243 19.768 224.163 19.576 224.548 19.576C 226.403 19.576 227.619 20.792 227.619 27.256L 227.619 44.344C 227.619 48.44 227.427 50.616 224.803 50.616L 224.803 51L 245.86 51L 245.86 50.616C 240.868 50.616 240.419 49.08 240.419 44.344L 240.419 28.664C 240.419 24.568 239.908 21.496 236.771 19C 235.043 17.656 232.803 16.952 230.115 16.952C 225.507 16.952 221.732 18.936 220.132 23.032L 220.132 17.336L 201.827 17.336L 201.827 17.784ZM 261.924 43.384L 261.924 27.448C 261.924 20.216 263.14 18.68 264.996 18.68C 265.828 18.68 266.852 19.064 267.62 20.536C 268.324 21.88 268.836 24.184 268.836 28.024L 268.836 37.56C 268.836 42.232 268.132 45.304 267.236 47.224C 266.34 49.144 265.188 49.848 264.228 49.848C 262.82 49.848 261.924 48.888 261.924 43.384ZM 287.332 51L 287.332 50.616C 282.34 50.616 281.892 49.08 281.892 44.344L 281.892 1.976L 263.524 1.976L 263.524 2.36C 268.26 2.36 268.964 3.512 268.964 8.504L 268.964 23.288C 268.644 21.56 267.428 16.952 261.924 16.952C 255.588 16.952 249.06 25.528 249.06 35.192C 249.06 43.448 253.796 51.384 260.708 51.384C 267.428 51.384 268.324 45.688 268.836 44.088L 268.836 51L 287.332 51ZM 312.999 43.576C 312.999 48.888 311.399 50.936 308.774 50.936C 306.215 50.936 304.615 48.888 304.615 43.576L 304.615 24.76C 304.615 19.448 306.215 17.4 308.774 17.4C 311.399 17.4 312.999 19.448 312.999 24.76L 312.999 43.576ZM 291.174 34.168C 291.174 43.704 299.238 51.384 308.774 51.384C 318.31 51.384 326.375 43.704 326.375 34.168C 326.375 24.632 318.31 16.952 308.774 16.952C 299.238 16.952 291.174 24.632 291.174 34.168ZM 8.064 117.992C 11.392 117.992 18.112 121.448 25.664 121.448C 31.488 121.448 35.136 119.976 39.552 115.752C 43.2 112.296 44.672 107.944 44.672 103.912C 44.672 91.496 32.832 89.32 28.992 88.424L 25.984 87.72C 23.552 87.144 15.936 85.8 15.936 78.184C 15.936 76.712 16.256 75.112 16.96 74.024C 18.816 71.336 20.8 70.696 23.488 70.696C 26.944 70.696 31.04 71.976 34.24 75.88C 38.336 80.808 39.552 84.52 39.552 88.488L 39.936 88.488L 39.936 70.12L 39.488 70.12C 39.296 72.68 37.312 73 35.328 73C 32.832 73 31.296 72.232 29.376 71.464C 27.776 70.824 25.856 70.248 22.848 70.248C 15.936 70.248 8 75.048 5.568 79.336C 4.288 81.576 3.648 84.136 3.648 86.568C 3.648 95.784 11.392 99.496 18.176 101.352L 21.888 102.376C 26.048 103.528 32.896 105.384 32.896 112.104C 32.896 115.496 31.168 120.936 24.512 120.936C 20.224 120.936 15.808 118.888 12.224 115.56C 7.68 111.4 4.416 105.192 4.416 98.792L 4.032 98.792L 4.032 120.936L 4.416 120.936C 5.056 118.632 6.464 117.992 8.064 117.992ZM 71.1235 113.576C 71.1235 118.888 69.5235 120.936 66.8995 120.936C 64.3395 120.936 62.7395 118.888 62.7395 113.576L 62.7395 94.76C 62.7395 89.448 64.3395 87.4 66.8995 87.4C 69.5235 87.4 71.1235 89.448 71.1235 94.76L 71.1235 113.576ZM 49.2995 104.168C 49.2995 113.704 57.3635 121.384 66.8995 121.384C 76.4355 121.384 84.4995 113.704 84.4995 104.168C 84.4995 94.632 76.4355 86.952 66.8995 86.952C 57.3635 86.952 49.2995 94.632 49.2995 104.168ZM 120.801 100.2C 120.801 96.552 120.609 92.712 116.385 89.768C 113.569 87.784 109.409 86.952 105.505 86.952C 97.505 86.952 90.849 90.472 90.849 95.784C 90.849 99.688 93.921 102.184 97.057 102.184C 100.193 102.184 103.521 99.752 103.521 95.912C 103.521 92.328 100.449 90.6 98.145 90.6C 97.633 90.6 97.121 90.664 96.737 90.856C 98.017 87.72 101.985 87.528 103.329 87.528C 105.761 87.528 107.937 88.04 107.937 94.248C 107.937 98.024 107.553 102.44 99.041 103.848L 97.505 104.104C 93.089 104.872 90.209 105.32 88.801 109.864C 88.545 110.76 88.353 111.784 88.353 112.808C 88.353 119.784 93.921 121.32 99.361 121.32C 100.769 121.32 101.921 121.256 102.881 120.872C 104.673 120.168 106.593 118.44 107.937 114.216C 108.961 117.992 110.049 119.464 113.633 120.872C 114.593 121.256 115.745 121.448 117.025 121.448C 118.817 121.448 120.737 121.064 122.209 120.232C 125.153 118.696 125.537 112.616 125.537 111.08L 125.089 111.08C 124.897 117.864 122.721 119.72 121.825 119.72C 120.801 119.72 120.801 117.928 120.801 116.904L 120.801 100.2ZM 105.953 101.416C 106.593 100.968 107.617 99.88 107.873 98.344L 107.873 106.6C 107.873 111.464 107.745 117.16 104.097 119.528C 103.777 119.848 103.265 119.976 102.817 119.976C 101.217 119.976 101.089 117.544 101.025 116.264C 100.897 114.728 100.769 113.384 100.769 111.912C 100.769 110.888 100.833 109.8 101.025 108.52C 101.473 104.936 101.793 104.488 105.953 101.416ZM 152.679 87.4C 153.703 87.4 156.519 87.72 156.775 90.536C 155.687 89.64 154.343 89.192 152.935 89.192C 149.351 89.192 146.919 91.624 146.919 95.08C 146.919 98.92 149.735 101.096 152.871 101.096C 156.263 101.096 159.015 98.472 159.015 94.376C 159.015 90.536 156.903 86.952 152.423 86.952C 147.687 86.952 145.703 90.408 144.807 93.992L 144.807 87.336L 127.015 87.336L 127.015 87.784C 132.007 87.784 132.455 89.128 132.455 93.864L 132.455 114.344C 132.455 119.08 132.007 120.616 127.015 120.616L 127.015 121L 150.759 121L 150.759 120.616C 145.767 120.616 145.383 119.08 145.383 114.344L 145.383 98.28C 145.383 94.184 145.639 91.56 147.495 89.448C 148.583 88.168 150.503 87.4 152.679 87.4ZM 195.053 103.848C 195.053 101.096 194.988 98.92 194.157 96.616C 192.301 91.816 188.653 86.952 180.333 86.952C 176.557 86.952 172.333 88.168 169.132 91.24C 164.652 95.592 162.924 100.456 162.924 105.064C 162.924 111.4 166.509 121.384 180.844 121.384C 183.597 121.384 186.285 120.936 188.076 119.848C 193.389 116.648 194.732 110.312 195.117 106.984L 194.668 106.984C 193.965 113.448 190.06 120.744 183.212 120.744C 177.324 120.744 175.852 115.88 175.852 107.752L 175.852 103.848L 195.053 103.848ZM 180.205 87.336C 180.844 87.336 181.357 87.4 181.612 87.656C 183.469 89.256 183.532 91.816 183.532 95.208C 183.532 97.576 183.469 100.904 183.34 103.4L 175.852 103.4L 175.852 101.544C 175.852 91.752 176.557 87.336 180.205 87.336ZM 202.946 118.696C 204.93 118.696 210.114 121.448 215.49 121.448C 222.338 121.448 228.61 116.968 228.61 109.48C 228.61 101.224 222.658 99.944 218.242 98.6L 216.386 98.024C 210.882 96.36 209.218 94.504 209.218 92.136C 209.218 90.408 210.114 87.272 213.698 87.272C 218.818 87.272 224.386 94.12 224.898 99.048L 225.282 99.048L 225.282 87.144L 224.834 87.144C 224.578 87.976 224.066 88.872 222.978 88.872C 220.674 88.872 217.73 86.952 213.442 86.952C 207.938 86.952 200.13 90.088 200.13 98.6C 200.13 106.088 206.018 107.944 210.818 109.544L 212.482 110.12C 216.13 111.4 219.65 112.36 219.65 116.2C 219.65 118.568 217.922 121 214.722 121C 208.642 121 201.154 112.552 199.746 105.128L 199.362 105.128L 199.362 121L 199.81 121C 200.834 119.336 201.73 118.696 202.946 118.696Z"/>
</defs>
</svg>
