<?xml version="1.0" encoding="utf-8"?>
<!-- Generator: Adobe Illustrator 21.0.0, SVG Export Plug-In . SVG Version: 6.00 Build 0)  -->
<svg version="1.1" id="Camada_1" xmlns="http://www.w3.org/2000/svg" xmlns:xlink="http://www.w3.org/1999/xlink" x="0px" y="0px"
	 viewBox="0 0 229 67" style="enable-background:new 0 0 229 67;" xml:space="preserve">
<style type="text/css">
	.st0{enable-background:new    ;}
	.st1{fill:#333333;}
	.st2{fill:none;stroke:#333333;}
</style>
<title>FRRRND</title>
<desc>Created with Sketch.</desc>
<g id="Page-1_1_">
	<g id="frrrnd-logo" transform="translate(-5.000000, -16.000000)">
		<g id="Page-1">
			<g id="Artboard">
				<g id="FRRRND">
					<g class="st0">
						<path class="st1" d="M7,80.1l-0.7-1.4l0.2-21.4l-0.2-1.4l0.3-2.9l-0.2-1.8L6.6,50l-0.1-1.4l0.1-1.4l-0.2-1.3l0.1-1.5l-0.2-1.6
							V41l0.3-1.4l-0.1-1.3v-1.4l-0.2-1.6l0.2-1.2v-4.2l-0.3-3.1l0.2-1.3V23l-0.3-2.8l0.5-1.4L7.9,18l1.5-0.1l6.9,0.4l2-0.3l6.4,0.1
							l1.7-0.1l1.4,0.2l1.3-0.3l1.4,0.9l0.8,1.7l-0.8,1.7L29.2,23L27,23.1l-2.1-0.3L23.5,23h-1.7l-1.4-0.2L19,23.1L17.5,23l-2.9,0.2
							L13,23.9l-0.5,1.3v1.3l-0.2,2.9l0.1,2.7l-0.1,1.7l0.1,1.2l-0.2,3l0.2,1.4l-0.2,1.4l-0.1,1.5l0.3,2.9l0.8,1.4l1.2,0.6l3.1-0.3
							l5.7,0.3l1.4-0.2l3,0.2l1.4,0.8l0.7,1.4l-0.8,1.9l-1.3,0.7h-1.5L24.4,52l-1.4,0.3l-1.2-0.2l-1.7,0.2l-2.8-0.4h-1.5l-2.6,0.9
							l-0.7,1.5l-0.2,1.3l0.2,1.5l-0.1,7.4l0.2,1.3l-0.3,1.3v1.7l0.3,3.1l-0.3,2.8l0.1,1.5l-0.1,1.3v1.3l-0.6,1.4L10,81.1H8.5
							L7,80.1z"/>
						<path class="st1" d="M65.7,81l-1.6-1.1l-1-1.7L62.2,76l-0.4-1.4l-0.6-1.4l-0.4-1.4l-0.6-1.3l-0.4-1.3l-1.2-2.6l-0.4-1.2
							l-1.2-2.7l-0.6-1.2l-0.8-2.9l-0.5-1.2l-1-1.3L53,55h-1.6l-3.1-0.2L47,54.9L45.8,56l-0.3,1.6l0.2,1.4v1.3l0.1,1.5l-0.1,16.5
							l-0.4,1.3l-1.1,1.2l-1.5,0.3l-1.4-0.5l-1.1-1l-0.3-1.4L39.8,77l0.2-3.2l-0.3-2.6l-0.1-2.5l0.3-3.4v-1.7l0.1-1.7l-0.3-5
							l0.3-1.6v-1.4l-0.2-1.5l0.3-2.7L40,42.5L39.7,41v-2.9l0.3-1.4v-1.5l-0.4-1.4l0.1-1.3L40,31v-2.3l-0.3-2l0.3-1.4l0.1-1.3
							l-0.3-2.8l0.3-1.5l1.6-1.2l2.4-0.1l1.6-0.4l1.7,0.1l1.5,0.4l1.3-0.4l1.8,0.3l2.3,0.1l2,0.3l1.2-0.2l1.6,0.6l1.2,0.4l1.4,0.6
							l2.4,1.4l1.1,0.9l1,1.2l1,1l0.5,1l1,1.3l0.8,3l0.3,2.9l0.5,1.8l-0.2,2.2l-0.3,1.6l-0.2,1.3l-0.1,1.5l-0.3,1.6l-1,2.6l-0.7,1.3
							L66.7,48l-0.6,1.2l-1.1,1l-1.2,0.8l-1.3,0.8l-1.2,1l-0.6,1.4l0.3,1.6l2,5.6l0.6,1.2l0.4,1.3l0.4,1.2l0.6,1.4l0.4,1.2l0.5,1.6
							l1.5,3.4l0.5,1.8l1.2,2.5l0.5,1.4l0.1,1.3l-1,1.3l-1.2,0.4L65.7,81z M53.3,49.9l1.3-0.4l1.3-0.1l1.4-0.4l1.4-0.8l1.3-0.6
							l1.1-0.8l2-3.5l0.5-1.5v-1.5L64,39l0.1-2.2l-0.3-5.8l-0.4-1.3l-2.4-3.6L59.7,25l-1.1-0.6l-1.3-0.5l-3.5-0.7L49.9,23l-1.5,0.2
							l-1.3,0.4l-0.9,0.8l-0.6,1.7l0.1,1.2l0.1,3L45.6,32l-0.1,2.1l0.2,1.5l-0.2,3.6l0.1,2.1L45.5,43l0.2,1.2l-0.1,1.4l0.1,1.3
							l0.5,1.4l1.1,1.2l1.8,0.3H53.3z"/>
						<path class="st1" d="M105,81l-1.6-1.1l-1-1.7l-0.9-2.2l-0.4-1.4l-0.6-1.4l-0.4-1.4l-0.6-1.3l-0.4-1.3L98,66.6l-0.4-1.2
							l-1.2-2.7l-0.6-1.2L95,58.7l-0.5-1.2l-1-1.3L92.3,55h-1.6l-3.1-0.2l-1.3,0.1L85.1,56l-0.3,1.6L85,59v1.3l0.1,1.5L85,78.4
							l-0.4,1.3l-1.1,1.2L82,81.1l-1.4-0.5l-1.1-1l-0.3-1.4L79.1,77l0.2-3.2L79,71.2l-0.1-2.5l0.3-3.4v-1.7l0.1-1.7l-0.3-5l0.3-1.6
							v-1.4l-0.2-1.5l0.3-2.7l-0.1-7.1L79,41v-2.9l0.3-1.4v-1.5l-0.4-1.4l0.1-1.3l0.3-1.5v-2.3l-0.3-2l0.3-1.4l0.1-1.3l-0.3-2.8
							l0.3-1.5l1.6-1.2l2.4-0.1l1.6-0.4l1.7,0.1l1.5,0.4l1.3-0.4l1.8,0.3l2.3,0.1l2,0.3l1.2-0.2l1.6,0.6l1.2,0.4l1.4,0.6l2.4,1.4
							l1.1,0.9l1,1.2l1,1l0.5,1l1,1.3l0.8,3l0.3,2.9l0.5,1.8l-0.2,2.2l-0.3,1.6l-0.2,1.3l-0.1,1.5l-0.3,1.6l-1,2.6l-0.7,1.3L106,48
							l-0.6,1.2l-1.1,1l-1.2,0.8l-1.3,0.8l-1.2,1l-0.6,1.4l0.3,1.6l2,5.6l0.6,1.2l0.4,1.3l0.4,1.2l0.6,1.4l0.4,1.2l0.5,1.6l1.5,3.4
							l0.5,1.8l1.2,2.5l0.5,1.4l0.1,1.3l-1,1.3l-1.2,0.4L105,81z M92.6,49.9l1.3-0.4l1.3-0.1l1.4-0.4l1.4-0.8l1.3-0.6l1.1-0.8l2-3.5
							l0.5-1.5v-1.5l0.4-1.3l0.1-2.2l-0.3-5.8l-0.4-1.3l-2.4-3.6L99,25l-1.1-0.6l-1.3-0.5l-3.5-0.7L89.3,23l-1.5,0.2l-1.3,0.4
							l-0.9,0.8L85,26.1l0.1,1.2l0.1,3L85,32l-0.1,2.1l0.2,1.5l-0.2,3.6l0.1,2.1L84.9,43l0.2,1.2L85,45.6L85,47l0.5,1.4l1.1,1.2
							l1.8,0.3H92.6z"/>
						<path class="st1" d="M144.4,81l-1.6-1.1l-1-1.7l-0.9-2.2l-0.4-1.4l-0.6-1.4l-0.4-1.4l-0.6-1.3l-0.4-1.3l-1.2-2.6l-0.4-1.2
							l-1.2-2.7l-0.6-1.2l-0.8-2.9l-0.5-1.2l-1-1.3l-1.2-1.2H130l-3.1-0.2l-1.3,0.1l-1.2,1.1l-0.3,1.6l0.2,1.4v1.3l0.1,1.5
							l-0.1,16.5l-0.5,1.3l-1.1,1.2l-1.5,0.3l-1.4-0.5l-1.1-1l-0.3-1.4l-0.1-1.2l0.2-3.2l-0.3-2.6l-0.1-2.5l0.3-3.4v-1.7l0.1-1.7
							l-0.3-5l0.3-1.6v-1.4l-0.2-1.5l0.3-2.7l-0.1-7.1l-0.3-1.4v-2.9l0.3-1.4v-1.5l-0.4-1.4l0.1-1.3l0.3-1.5v-2.3l-0.3-2l0.3-1.4
							l0.1-1.3l-0.3-2.8l0.3-1.5l1.6-1.2l2.4-0.1l1.6-0.4l1.7,0.1l1.5,0.4L129,18l1.8,0.3l2.3,0.1l2,0.3l1.2-0.2l1.6,0.6l1.2,0.4
							l1.4,0.6l2.4,1.4l1.1,0.9l1,1.2l1,1l0.5,1l1,1.3l0.8,3l0.3,2.9l0.4,1.8l-0.2,2.2l-0.3,1.6l-0.2,1.3l-0.1,1.5l-0.3,1.6l-1,2.6
							l-0.7,1.3l-0.9,1.3l-0.6,1.2l-1.1,1l-1.2,0.8l-1.3,0.8l-1.2,1l-0.6,1.4l0.3,1.6l2,5.6l0.6,1.2l0.4,1.3l0.4,1.2l0.6,1.4
							l0.4,1.2l0.5,1.6l1.5,3.4l0.5,1.8l1.2,2.5l0.5,1.4l0.1,1.3l-1,1.3l-1.2,0.4L144.4,81z M131.9,49.9l1.3-0.4l1.3-0.1l1.4-0.4
							l1.4-0.8l1.3-0.6l1.1-0.8l2-3.5l0.5-1.5v-1.5l0.4-1.3l0.1-2.2l-0.3-5.8l-0.5-1.3l-2.4-3.6l-1.3-1.1l-1.1-0.6l-1.3-0.5
							l-3.5-0.7l-3.9-0.3l-1.5,0.2l-1.3,0.4l-0.9,0.8l-0.6,1.7l0.1,1.2l0.1,3l-0.2,1.8l-0.1,2.1l0.2,1.5l-0.2,3.6l0.1,2.1l-0.1,1.7
							l0.2,1.2l-0.1,1.4l0.1,1.3l0.4,1.4l1.1,1.2l1.8,0.3H131.9z"/>
						<path class="st1" d="M182.2,80.3l-1.3-1.4l-0.5-1.3l-1.8-5.5l-0.4-1.5l-0.6-1.3l-0.3-1.3l-1.5-4.3l-0.3-1.1l-2-5.3l-0.7-3.2
							l-0.6-1.4l-0.4-1.4l-0.6-1l-0.8-3l-0.6-1.4l-0.2-1.4l-0.6-1.3l-3.4-11.1l-0.2-1.3l-1.2-4.1l-0.5-1.2l-0.4-0.1l0.1,1.3
							l-0.1,1.5l0.2,1.5l-0.1,1.4l0.2,1.4l-0.1,1.2l0.2,1.5l-0.1,2.2l0.2,7.9l-0.3,1.3l0.3,5.8l-0.1,1.5l0.2,1.6l-0.1,1.3l-0.2,1.3
							l0.1,3.2l0.2,2.2l-0.3,2l0.2,1.7l-0.1,1.2v1.4l0.2,1.6l-0.3,1.6l0.2,5.7l-0.8,1.3l-2.2,0.5l-2.1-0.7l-0.7-1.2l-0.1-7.2
							l0.2-1.3l-0.2-1.7l0.1-5.8l-0.2-3.6l0.1-1.3V56l0.2-1.4l-0.3-3.4l0.1-3.7l-0.1-1.6l0.1-1.2l-0.1-1.7l0.2-1.3l-0.3-1.4l0.3-2.8
							v-1.6l-0.2-1.2l0.1-4.6l-0.1-1.4l0.2-6.8l-0.1-1.6l0.7-1.5l2.1-0.7l2.2,0.1l1.5-0.2l1.4,0.8l1.3,1.4l0.5,1.3l0.4,1.3l0.2,1.5
							l1.2,2.5l5,15.2l0.2,1.3l0.5,1.3l0.7,1.4l1.3,4l0.7,2.8l3,8.6l0.5,2.2l0.4,1.4l0.7,1.6l0.4,1.4l0.2,1.4l0.8,3.1l0.5,1.4
							l0.4-0.1l0.1-4.5l-0.5-2.6l0.2-1.5v-1.6l-0.3-2.1l0.3-2.1l-0.2-2.1l0.2-3.6l-0.2-1.2l0.1-18.5l-0.3-2.2l0.2-2.1l-0.2-1.2
							l0.2-1.4l-0.1-1.5l0.1-1.4l-0.3-4.3l0.6-1.3l1.2-0.5l1.5,0.1l1.3,0.5l0.9,1.3l0.3,1.3l0.2,2.5l-0.2,1.4l0.2,1.6l-0.2,1.4
							l0.4,7.3l-0.2,1.1l0.2,3.3l-0.1,1.4l-0.2,1.3l0.2,7.5l-0.2,1.3l0.2,1.5l-0.1,6l0.1,1.4l-0.2,1.3l0.2,1.4v1.4l-0.2,1.5l0.2,5.8
							l-0.2,1.2v1.6l0.2,1.6l-0.2,1.3v1.3l-0.6,1.8L188,81h-1.4l-1.6-0.1l-1.3,0.2L182.2,80.3z"/>
						<path class="st1" d="M202.6,80.5l-0.7-1.6l-0.1-1.3l0.2-1.2l-0.2-1.7l0.2-1.3v-3.1l-0.3-1.3v-4.4L202,63l-0.2-1.1l0.1-1.5
							l-0.1-1.6l0.2-1.3l-0.2-2.1l0.1-2.2l-0.2-1.4l0.2-2.2l-0.1-2.2v-2.1l-0.1-2.4l0.1-1.2l-0.1-1.3L202,39l-0.2-1.8l0.2-1.3
							l-0.3-1.5l0.3-6.9l-0.4-3l0.4-4.2l0.5-1.3l1.3-1l5.9,0.1l1.5-0.3l2,0.4l3.7,0.1l1.3,0.2l1.4,0.1l2.7,0.8l2.5,1.2l3.1,3.1
							l0.6,1l0.5,1.2l0.5,1.1l1.4,4.2l0.3,1.6l0.3,1.4l0.5,1.3l0.1,1.5v1.5l0.4,1.7l-0.1,1.3l0.4,1.4v8.8l-0.2,1.5v2.9l-0.2,4.4
							l-0.3,1.3l-0.5,1.7l-0.3,2.4l-0.4,1.7l-0.3,1.4l-1.5,4l-0.8,1.1l-0.8,1.2l-1.1,1.1l-1,1.1l-1.1,0.6l-1.3,1l-1.2,0.5l-2.1,0.7
							l-2.2,0.5l-1.3,0.1l-1.4-0.1l-5.7,0.3L208,81l-3.3,0.2L202.6,80.5z M216.3,75.9l1.4-0.5l2.5-1.3l1.2-0.3l1-0.9l0.8-1.3
							l0.8-1.1l1-2.5l0.8-2.7l0.6-3.1v-3.2l0.2-1.2l0.4-10.6l-0.5-8.5l-0.2-1.5l-0.1-1.4l-0.5-1.4l-0.2-1.3l-0.7-2.9l-1.2-2.3
							l-1-1.3l-1.2-0.7l-0.9-1l-1.3-0.8l-1.2-0.5l-1.5-0.2l-1.2-0.5l-4.2-0.1l-1.4,0.3l-1.5,0.8l-0.5,1.2l0.1,1.3l-0.2,1.8v1.3
							l0.3,1.3l-0.3,1.7l0.1,2.9l0.1,1.1l-0.1,9.7l-0.2,1.4l0.1,2l0.1,1.2l0.1,7.2l-0.3,1.4l0.2,1.5l-0.2,4.6l0.3,1.2v1.4l-0.2,1.3
							v3.8l0.8,1.8l1.2,0.6l3.2,0.1l2.2,0.2L216.3,75.9z"/>
					</g>
					<g class="st0">
						<path class="st2" d="M7,80.1l-0.7-1.4l0.2-21.4l-0.2-1.4l0.3-2.9l-0.2-1.8L6.6,50l-0.1-1.4l0.1-1.4l-0.2-1.3l0.1-1.5l-0.2-1.6
							V41l0.3-1.4l-0.1-1.3v-1.4l-0.2-1.6l0.2-1.2v-4.2l-0.3-3.1l0.2-1.3V23l-0.3-2.8l0.5-1.4L7.9,18l1.5-0.1l6.9,0.4l2-0.3l6.4,0.1
							l1.7-0.1l1.4,0.2l1.3-0.3l1.4,0.9l0.8,1.7l-0.8,1.7L29.2,23L27,23.1l-2.1-0.3L23.5,23h-1.7l-1.4-0.2L19,23.1L17.5,23l-2.9,0.2
							L13,23.9l-0.5,1.3v1.3l-0.2,2.9l0.1,2.7l-0.1,1.7l0.1,1.2l-0.2,3l0.2,1.4l-0.2,1.4l-0.1,1.5l0.3,2.9l0.8,1.4l1.2,0.6l3.1-0.3
							l5.7,0.3l1.4-0.2l3,0.2l1.4,0.8l0.7,1.4l-0.8,1.9l-1.3,0.7h-1.5L24.4,52l-1.4,0.3l-1.2-0.2l-1.7,0.2l-2.8-0.4h-1.5l-2.6,0.9
							l-0.7,1.5l-0.2,1.3l0.2,1.5l-0.1,7.4l0.2,1.3l-0.3,1.3v1.7l0.3,3.1l-0.3,2.8l0.1,1.5l-0.1,1.3v1.3l-0.6,1.4L10,81.1H8.5
							L7,80.1z"/>
						<path class="st2" d="M65.7,81l-1.6-1.1l-1-1.7L62.2,76l-0.4-1.4l-0.6-1.4l-0.4-1.4l-0.6-1.3l-0.4-1.3l-1.2-2.6l-0.4-1.2
							l-1.2-2.7l-0.6-1.2l-0.8-2.9l-0.5-1.2l-1-1.3L53,55h-1.6l-3.1-0.2L47,54.9L45.8,56l-0.3,1.6l0.2,1.4v1.3l0.1,1.5l-0.1,16.5
							l-0.4,1.3l-1.1,1.2l-1.5,0.3l-1.4-0.5l-1.1-1l-0.3-1.4L39.8,77l0.2-3.2l-0.3-2.6l-0.1-2.5l0.3-3.4v-1.7l0.1-1.7l-0.3-5
							l0.3-1.6v-1.4l-0.2-1.5l0.3-2.7L40,42.5L39.7,41v-2.9l0.3-1.4v-1.5l-0.4-1.4l0.1-1.3L40,31v-2.3l-0.3-2l0.3-1.4l0.1-1.3
							l-0.3-2.8l0.3-1.5l1.6-1.2l2.4-0.1l1.6-0.4l1.7,0.1l1.5,0.4l1.3-0.4l1.8,0.3l2.3,0.1l2,0.3l1.2-0.2l1.6,0.6l1.2,0.4l1.4,0.6
							l2.4,1.4l1.1,0.9l1,1.2l1,1l0.5,1l1,1.3l0.8,3l0.3,2.9l0.5,1.8l-0.2,2.2l-0.3,1.6l-0.2,1.3l-0.1,1.5l-0.3,1.6l-1,2.6l-0.7,1.3
							L66.7,48l-0.6,1.2l-1.1,1l-1.2,0.8l-1.3,0.8l-1.2,1l-0.6,1.4l0.3,1.6l2,5.6l0.6,1.2l0.4,1.3l0.4,1.2l0.6,1.4l0.4,1.2l0.5,1.6
							l1.5,3.4l0.5,1.8l1.2,2.5l0.5,1.4l0.1,1.3l-1,1.3l-1.2,0.4L65.7,81z M53.3,49.9l1.3-0.4l1.3-0.1l1.4-0.4l1.4-0.8l1.3-0.6
							l1.1-0.8l2-3.5l0.5-1.5v-1.5L64,39l0.1-2.2l-0.3-5.8l-0.4-1.3l-2.4-3.6L59.7,25l-1.1-0.6l-1.3-0.5l-3.5-0.7L49.9,23l-1.5,0.2
							l-1.3,0.4l-0.9,0.8l-0.6,1.7l0.1,1.2l0.1,3L45.6,32l-0.1,2.1l0.2,1.5l-0.2,3.6l0.1,2.1L45.5,43l0.2,1.2l-0.1,1.4l0.1,1.3
							l0.5,1.4l1.1,1.2l1.8,0.3H53.3z"/>
						<path class="st2" d="M105,81l-1.6-1.1l-1-1.7l-0.9-2.2l-0.4-1.4l-0.6-1.4l-0.4-1.4l-0.6-1.3l-0.4-1.3L98,66.6l-0.4-1.2
							l-1.2-2.7l-0.6-1.2L95,58.7l-0.5-1.2l-1-1.3L92.3,55h-1.6l-3.1-0.2l-1.3,0.1L85.1,56l-0.3,1.6L85,59v1.3l0.1,1.5L85,78.4
							l-0.4,1.3l-1.1,1.2L82,81.1l-1.4-0.5l-1.1-1l-0.3-1.4L79.1,77l0.2-3.2L79,71.2l-0.1-2.5l0.3-3.4v-1.7l0.1-1.7l-0.3-5l0.3-1.6
							v-1.4l-0.2-1.5l0.3-2.7l-0.1-7.1L79,41v-2.9l0.3-1.4v-1.5l-0.4-1.4l0.1-1.3l0.3-1.5v-2.3l-0.3-2l0.3-1.4l0.1-1.3l-0.3-2.8
							l0.3-1.5l1.6-1.2l2.4-0.1l1.6-0.4l1.7,0.1l1.5,0.4l1.3-0.4l1.8,0.3l2.3,0.1l2,0.3l1.2-0.2l1.6,0.6l1.2,0.4l1.4,0.6l2.4,1.4
							l1.1,0.9l1,1.2l1,1l0.5,1l1,1.3l0.8,3l0.3,2.9l0.5,1.8l-0.2,2.2l-0.3,1.6l-0.2,1.3l-0.1,1.5l-0.3,1.6l-1,2.6l-0.7,1.3L106,48
							l-0.6,1.2l-1.1,1l-1.2,0.8l-1.3,0.8l-1.2,1l-0.6,1.4l0.3,1.6l2,5.6l0.6,1.2l0.4,1.3l0.4,1.2l0.6,1.4l0.4,1.2l0.5,1.6l1.5,3.4
							l0.5,1.8l1.2,2.5l0.5,1.4l0.1,1.3l-1,1.3l-1.2,0.4L105,81z M92.6,49.9l1.3-0.4l1.3-0.1l1.4-0.4l1.4-0.8l1.3-0.6l1.1-0.8l2-3.5
							l0.5-1.5v-1.5l0.4-1.3l0.1-2.2l-0.3-5.8l-0.4-1.3l-2.4-3.6L99,25l-1.1-0.6l-1.3-0.5l-3.5-0.7L89.3,23l-1.5,0.2l-1.3,0.4
							l-0.9,0.8L85,26.1l0.1,1.2l0.1,3L85,32l-0.1,2.1l0.2,1.5l-0.2,3.6l0.1,2.1L84.9,43l0.2,1.2L85,45.6L85,47l0.5,1.4l1.1,1.2
							l1.8,0.3H92.6z"/>
						<path class="st2" d="M144.4,81l-1.6-1.1l-1-1.7l-0.9-2.2l-0.4-1.4l-0.6-1.4l-0.4-1.4l-0.6-1.3l-0.4-1.3l-1.2-2.6l-0.4-1.2
							l-1.2-2.7l-0.6-1.2l-0.8-2.9l-0.5-1.2l-1-1.3l-1.2-1.2H130l-3.1-0.2l-1.3,0.1l-1.2,1.1l-0.3,1.6l0.2,1.4v1.3l0.1,1.5
							l-0.1,16.5l-0.5,1.3l-1.1,1.2l-1.5,0.3l-1.4-0.5l-1.1-1l-0.3-1.4l-0.1-1.2l0.2-3.2l-0.3-2.6l-0.1-2.5l0.3-3.4v-1.7l0.1-1.7
							l-0.3-5l0.3-1.6v-1.4l-0.2-1.5l0.3-2.7l-0.1-7.1l-0.3-1.4v-2.9l0.3-1.4v-1.5l-0.4-1.4l0.1-1.3l0.3-1.5v-2.3l-0.3-2l0.3-1.4
							l0.1-1.3l-0.3-2.8l0.3-1.5l1.6-1.2l2.4-0.1l1.6-0.4l1.7,0.1l1.5,0.4L129,18l1.8,0.3l2.3,0.1l2,0.3l1.2-0.2l1.6,0.6l1.2,0.4
							l1.4,0.6l2.4,1.4l1.1,0.9l1,1.2l1,1l0.5,1l1,1.3l0.8,3l0.3,2.9l0.4,1.8l-0.2,2.2l-0.3,1.6l-0.2,1.3l-0.1,1.5l-0.3,1.6l-1,2.6
							l-0.7,1.3l-0.9,1.3l-0.6,1.2l-1.1,1l-1.2,0.8l-1.3,0.8l-1.2,1l-0.6,1.4l0.3,1.6l2,5.6l0.6,1.2l0.4,1.3l0.4,1.2l0.6,1.4
							l0.4,1.2l0.5,1.6l1.5,3.4l0.5,1.8l1.2,2.5l0.5,1.4l0.1,1.3l-1,1.3l-1.2,0.4L144.4,81z M131.9,49.9l1.3-0.4l1.3-0.1l1.4-0.4
							l1.4-0.8l1.3-0.6l1.1-0.8l2-3.5l0.5-1.5v-1.5l0.4-1.3l0.1-2.2l-0.3-5.8l-0.5-1.3l-2.4-3.6l-1.3-1.1l-1.1-0.6l-1.3-0.5
							l-3.5-0.7l-3.9-0.3l-1.5,0.2l-1.3,0.4l-0.9,0.8l-0.6,1.7l0.1,1.2l0.1,3l-0.2,1.8l-0.1,2.1l0.2,1.5l-0.2,3.6l0.1,2.1l-0.1,1.7
							l0.2,1.2l-0.1,1.4l0.1,1.3l0.4,1.4l1.1,1.2l1.8,0.3H131.9z"/>
						<path class="st2" d="M182.2,80.3l-1.3-1.4l-0.5-1.3l-1.8-5.5l-0.4-1.5l-0.6-1.3l-0.3-1.3l-1.5-4.3l-0.3-1.1l-2-5.3l-0.7-3.2
							l-0.6-1.4l-0.4-1.4l-0.6-1l-0.8-3l-0.6-1.4l-0.2-1.4l-0.6-1.3l-3.4-11.1l-0.2-1.3l-1.2-4.1l-0.5-1.2l-0.4-0.1l0.1,1.3
							l-0.1,1.5l0.2,1.5l-0.1,1.4l0.2,1.4l-0.1,1.2l0.2,1.5l-0.1,2.2l0.2,7.9l-0.3,1.3l0.3,5.8l-0.1,1.5l0.2,1.6l-0.1,1.3l-0.2,1.3
							l0.1,3.2l0.2,2.2l-0.3,2l0.2,1.7l-0.1,1.2v1.4l0.2,1.6l-0.3,1.6l0.2,5.7l-0.8,1.3l-2.2,0.5l-2.1-0.7l-0.7-1.2l-0.1-7.2
							l0.2-1.3l-0.2-1.7l0.1-5.8l-0.2-3.6l0.1-1.3V56l0.2-1.4l-0.3-3.4l0.1-3.7l-0.1-1.6l0.1-1.2l-0.1-1.7l0.2-1.3l-0.3-1.4l0.3-2.8
							v-1.6l-0.2-1.2l0.1-4.6l-0.1-1.4l0.2-6.8l-0.1-1.6l0.7-1.5l2.1-0.7l2.2,0.1l1.5-0.2l1.4,0.8l1.3,1.4l0.5,1.3l0.4,1.3l0.2,1.5
							l1.2,2.5l5,15.2l0.2,1.3l0.5,1.3l0.7,1.4l1.3,4l0.7,2.8l3,8.6l0.5,2.2l0.4,1.4l0.7,1.6l0.4,1.4l0.2,1.4l0.8,3.1l0.5,1.4
							l0.4-0.1l0.1-4.5l-0.5-2.6l0.2-1.5v-1.6l-0.3-2.1l0.3-2.1l-0.2-2.1l0.2-3.6l-0.2-1.2l0.1-18.5l-0.3-2.2l0.2-2.1l-0.2-1.2
							l0.2-1.4l-0.1-1.5l0.1-1.4l-0.3-4.3l0.6-1.3l1.2-0.5l1.5,0.1l1.3,0.5l0.9,1.3l0.3,1.3l0.2,2.5l-0.2,1.4l0.2,1.6l-0.2,1.4
							l0.4,7.3l-0.2,1.1l0.2,3.3l-0.1,1.4l-0.2,1.3l0.2,7.5l-0.2,1.3l0.2,1.5l-0.1,6l0.1,1.4l-0.2,1.3l0.2,1.4v1.4l-0.2,1.5l0.2,5.8
							l-0.2,1.2v1.6l0.2,1.6l-0.2,1.3v1.3l-0.6,1.8L188,81h-1.4l-1.6-0.1l-1.3,0.2L182.2,80.3z"/>
						<path class="st2" d="M202.6,80.5l-0.7-1.6l-0.1-1.3l0.2-1.2l-0.2-1.7l0.2-1.3v-3.1l-0.3-1.3v-4.4L202,63l-0.2-1.1l0.1-1.5
							l-0.1-1.6l0.2-1.3l-0.2-2.1l0.1-2.2l-0.2-1.4l0.2-2.2l-0.1-2.2v-2.1l-0.1-2.4l0.1-1.2l-0.1-1.3L202,39l-0.2-1.8l0.2-1.3
							l-0.3-1.5l0.3-6.9l-0.4-3l0.4-4.2l0.5-1.3l1.3-1l5.9,0.1l1.5-0.3l2,0.4l3.7,0.1l1.3,0.2l1.4,0.1l2.7,0.8l2.5,1.2l3.1,3.1
							l0.6,1l0.5,1.2l0.5,1.1l1.4,4.2l0.3,1.6l0.3,1.4l0.5,1.3l0.1,1.5v1.5l0.4,1.7l-0.1,1.3l0.4,1.4v8.8l-0.2,1.5v2.9l-0.2,4.4
							l-0.3,1.3l-0.5,1.7l-0.3,2.4l-0.4,1.7l-0.3,1.4l-1.5,4l-0.8,1.1l-0.8,1.2l-1.1,1.1l-1,1.1l-1.1,0.6l-1.3,1l-1.2,0.5l-2.1,0.7
							l-2.2,0.5l-1.3,0.1l-1.4-0.1l-5.7,0.3L208,81l-3.3,0.2L202.6,80.5z M216.3,75.9l1.4-0.5l2.5-1.3l1.2-0.3l1-0.9l0.8-1.3
							l0.8-1.1l1-2.5l0.8-2.7l0.6-3.1v-3.2l0.2-1.2l0.4-10.6l-0.5-8.5l-0.2-1.5l-0.1-1.4l-0.5-1.4l-0.2-1.3l-0.7-2.9l-1.2-2.3
							l-1-1.3l-1.2-0.7l-0.9-1l-1.3-0.8l-1.2-0.5l-1.5-0.2l-1.2-0.5l-4.2-0.1l-1.4,0.3l-1.5,0.8l-0.5,1.2l0.1,1.3l-0.2,1.8v1.3
							l0.3,1.3l-0.3,1.7l0.1,2.9l0.1,1.1l-0.1,9.7l-0.2,1.4l0.1,2l0.1,1.2l0.1,7.2l-0.3,1.4l0.2,1.5l-0.2,4.6l0.3,1.2v1.4l-0.2,1.3
							v3.8l0.8,1.8l1.2,0.6l3.2,0.1l2.2,0.2L216.3,75.9z"/>
					</g>
				</g>
			</g>
		</g>
	</g>
</g>
</svg>
